<svg xmlns="http://www.w3.org/2000/svg" viewBox="0 0 1920 640" width="1920" height="640">
  <defs>
    <linearGradient id="bg" x1="0" y1="0" x2="1" y2="1">
      <stop offset="0%" stop-color="#FFEDF5"/>
      <stop offset="45%" stop-color="#EFF3FF"/>
      <stop offset="100%" stop-color="#E6FAF1"/>
    </linearGradient>
    <radialGradient id="blobA" cx="50%" cy="50%">
      <stop offset="0%" stop-color="#FFC2DC" stop-opacity="0.85"/>
      <stop offset="100%" stop-color="#FFC2DC" stop-opacity="0"/>
    </radialGradient>
    <radialGradient id="blobB" cx="50%" cy="50%">
      <stop offset="0%" stop-color="#A8D8FF" stop-opacity="0.8"/>
      <stop offset="100%" stop-color="#A8D8FF" stop-opacity="0"/>
    </radialGradient>
    <radialGradient id="blobC" cx="50%" cy="50%">
      <stop offset="0%" stop-color="#B9F0D2" stop-opacity="0.8"/>
      <stop offset="100%" stop-color="#B9F0D2" stop-opacity="0"/>
    </radialGradient>
    <filter id="soft"><feGaussianBlur stdDeviation="18"/></filter>
    <filter id="drop"><feDropShadow dx="0" dy="6" stdDeviation="8" flood-color="#8E7CA8" flood-opacity="0.18"/></filter>
  </defs>

  <rect width="1920" height="640" fill="url(#bg)"/>

  <circle cx="330" cy="180" r="260" fill="url(#blobA)"/>
  <circle cx="1560" cy="470" r="300" fill="url(#blobB)"/>
  <circle cx="1180" cy="120" r="220" fill="url(#blobC)"/>
  <circle cx="720" cy="540" r="240" fill="url(#blobA)" opacity="0.5"/>

  <!-- 떠다니는 코드 카드 -->
  <g filter="url(#soft)" opacity="0.24">
    <rect x="255" y="290" width="220" height="144" rx="30" fill="#7C6BB0"/>
    <rect x="1455" y="140" width="190" height="126" rx="28" fill="#5B8DBE"/>
  </g>
  <g>
    <rect x="250" y="282" width="220" height="144" rx="30" fill="#FFFFFF" opacity="0.92"/>
    <circle cx="286" cy="316" r="7" fill="#FF9BB8"/>
    <circle cx="310" cy="316" r="7" fill="#FFD08A"/>
    <circle cx="334" cy="316" r="7" fill="#9BDCB4"/>
    <rect x="278" y="346" width="116" height="12" rx="6" fill="#DDE3F0"/>
    <rect x="278" y="372" width="160" height="12" rx="6" fill="#E8EDF7"/>
    <rect x="278" y="398" width="84" height="12" rx="6" fill="#E8EDF7"/>
  </g>
  <g>
    <rect x="1450" y="132" width="190" height="126" rx="28" fill="#FFFFFF" opacity="0.92"/>
    <rect x="1476" y="166" width="92" height="12" rx="6" fill="#DDE3F0"/>
    <rect x="1476" y="192" width="134" height="12" rx="6" fill="#E8EDF7"/>
    <rect x="1476" y="218" width="66" height="12" rx="6" fill="#E8EDF7"/>
  </g>

  <!-- 반짝이 -->
  <g fill="#FFFFFF">
    <path d="M600 130 l10 26 26 10 -26 10 -10 26 -10 -26 -26 -10 26 -10z" opacity="0.95"/>
    <path d="M1320 380 l8 21 21 8 -21 8 -8 21 -8 -21 -21 -8 21 -8z" opacity="0.9"/>
    <path d="M860 80 l6 16 16 6 -16 6 -6 16 -6 -16 -16 -6 16 -6z" opacity="0.85"/>
    <path d="M1720 300 l7 18 18 7 -18 7 -7 18 -7 -18 -18 -7 18 -7z" opacity="0.8"/>
  </g>
  <g fill="#FFB3CE" opacity="0.7">
    <circle cx="520" cy="215" r="10"/>
    <circle cx="1240" cy="150" r="8"/>
  </g>
  <g fill="#A5D8F3" opacity="0.65">
    <circle cx="1610" cy="80" r="11"/>
    <circle cx="180" cy="450" r="9"/>
  </g>

  <!-- ── 마스코트 3인방 ── -->
  <g filter="url(#drop)">

    <!-- 1. 민트 고양이 -->
    <g transform="translate(800,530)">
      <path d="M-34 -46 l-6 -34 26 16z" fill="#BFEEDB" stroke="#7FB7A2" stroke-width="4" stroke-linejoin="round"/>
      <path d="M34 -46 l6 -34 -26 16z" fill="#BFEEDB" stroke="#7FB7A2" stroke-width="4" stroke-linejoin="round"/>
      <ellipse cx="0" cy="0" rx="58" ry="54" fill="#D8F6E9" stroke="#7FB7A2" stroke-width="4.5"/>
      <path d="M-26 -8 q7 -9 14 0" fill="none" stroke="#4E7A6B" stroke-width="5" stroke-linecap="round"/>
      <path d="M12 -8 q7 -9 14 0" fill="none" stroke="#4E7A6B" stroke-width="5" stroke-linecap="round"/>
      <ellipse cx="-34" cy="10" rx="11" ry="7" fill="#FFB8CE" opacity="0.75"/>
      <ellipse cx="34" cy="10" rx="11" ry="7" fill="#FFB8CE" opacity="0.75"/>
      <path d="M-9 12 q9 10 18 0" fill="none" stroke="#4E7A6B" stroke-width="4.5" stroke-linecap="round"/>
      <ellipse cx="-44" cy="46" rx="14" ry="10" fill="#D8F6E9" stroke="#7FB7A2" stroke-width="4"/>
      <ellipse cx="44" cy="46" rx="14" ry="10" fill="#D8F6E9" stroke="#7FB7A2" stroke-width="4"/>
    </g>

    <!-- 2. 핑크 곰 -->
    <g transform="translate(960,545)">
      <circle cx="-40" cy="-42" r="17" fill="#FFD3E2" stroke="#E19AB4" stroke-width="4"/>
      <circle cx="40" cy="-42" r="17" fill="#FFD3E2" stroke="#E19AB4" stroke-width="4"/>
      <ellipse cx="0" cy="0" rx="60" ry="56" fill="#FFE3EC" stroke="#E19AB4" stroke-width="4.5"/>
      <circle cx="-20" cy="-6" r="5.5" fill="#8A5568"/>
      <circle cx="20" cy="-6" r="5.5" fill="#8A5568"/>
      <ellipse cx="-36" cy="12" rx="11" ry="7" fill="#FF9FBE" opacity="0.7"/>
      <ellipse cx="36" cy="12" rx="11" ry="7" fill="#FF9FBE" opacity="0.7"/>
      <ellipse cx="0" cy="12" rx="15" ry="11" fill="#FFF3F7"/>
      <path d="M-7 10 q7 8 14 0" fill="none" stroke="#8A5568" stroke-width="4" stroke-linecap="round"/>
      <ellipse cx="-46" cy="48" rx="14" ry="10" fill="#FFE3EC" stroke="#E19AB4" stroke-width="4"/>
      <ellipse cx="46" cy="48" rx="14" ry="10" fill="#FFE3EC" stroke="#E19AB4" stroke-width="4"/>
    </g>

    <!-- 3. 라벤더 토끼 -->
    <g transform="translate(1120,528)">
      <ellipse cx="-20" cy="-62" rx="12" ry="34" fill="#E4DBFA" stroke="#A695D6" stroke-width="4"/>
      <ellipse cx="20" cy="-62" rx="12" ry="34" fill="#E4DBFA" stroke="#A695D6" stroke-width="4"/>
      <ellipse cx="-20" cy="-62" rx="5" ry="22" fill="#FFC9DC" opacity="0.8"/>
      <ellipse cx="20" cy="-62" rx="5" ry="22" fill="#FFC9DC" opacity="0.8"/>
      <ellipse cx="0" cy="0" rx="57" ry="54" fill="#EFE9FC" stroke="#A695D6" stroke-width="4.5"/>
      <path d="M-27 -6 q8 -10 16 0" fill="none" stroke="#6A5A96" stroke-width="5" stroke-linecap="round"/>
      <path d="M11 -6 q8 -10 16 0" fill="none" stroke="#6A5A96" stroke-width="5" stroke-linecap="round"/>
      <ellipse cx="-35" cy="12" rx="11" ry="7" fill="#FFB8CE" opacity="0.75"/>
      <ellipse cx="35" cy="12" rx="11" ry="7" fill="#FFB8CE" opacity="0.75"/>
      <path d="M-8 12 q8 9 16 0" fill="none" stroke="#6A5A96" stroke-width="4.5" stroke-linecap="round"/>
      <ellipse cx="-44" cy="46" rx="14" ry="10" fill="#EFE9FC" stroke="#A695D6" stroke-width="4"/>
      <ellipse cx="44" cy="46" rx="14" ry="10" fill="#EFE9FC" stroke="#A695D6" stroke-width="4"/>
    </g>

  </g>

  <!-- 마스코트 주변 반짝이 -->
  <g fill="#FFFFFF" opacity="0.9">
    <path d="M700 470 l6 15 15 6 -15 6 -6 15 -6 -15 -15 -6 15 -6z"/>
    <path d="M1225 440 l5 13 13 5 -13 5 -5 13 -5 -13 -13 -5 13 -5z"/>
  </g>
</svg>
